<svg width="25" height="26" viewBox="0 0 25 26" fill="none" xmlns="http://www.w3.org/2000/svg">
<g id="add-folder">
<path id="Vector" d="M10.4166 15.0833H12.5M12.5 15.0833H14.5833M12.5 15.0833V17.1667M12.5 15.0833V13" stroke="#1F1F1F" stroke-width="1.5" stroke-linecap="round"/>
<path id="Vector_2" d="M2.08337 7.73933C2.08337 6.82003 2.08337 6.36037 2.15561 5.9775C2.47362 4.292 3.79203 2.97359 5.47753 2.65558C5.86041 2.58334 6.32006 2.58334 7.23936 2.58334C7.64214 2.58334 7.84354 2.58334 8.03709 2.60145C8.87155 2.67948 9.66308 3.00734 10.3083 3.54221C10.458 3.66627 10.6004 3.80869 10.8851 4.0935L11.4584 4.66668C12.3082 5.51645 12.7331 5.94133 13.2418 6.22442C13.5213 6.37992 13.8179 6.50272 14.1255 6.59041C14.6854 6.75001 15.2862 6.75001 16.488 6.75001H16.8772C19.6193 6.75001 20.9902 6.75001 21.8815 7.55153C21.9635 7.62526 22.0415 7.70328 22.1151 7.78525C22.9167 8.67642 22.9167 10.0474 22.9167 12.7895V15.0833C22.9167 19.0117 22.9167 20.9759 21.6963 22.1963C20.476 23.4167 18.5117 23.4167 14.5834 23.4167H10.4167C6.48833 23.4167 4.52416 23.4167 3.30376 22.1963C2.08337 20.9759 2.08337 19.0117 2.08337 15.0833V7.73933Z" stroke="#1F1F1F" stroke-width="1.5"/>
</g>
</svg>
