<svg width="49" height="49" viewBox="0 0 49 49" fill="none" xmlns="http://www.w3.org/2000/svg">
<g id="Component 1">
<path id="Vector" d="M24.4998 36.0911C28.6419 36.0911 31.9998 32.428 31.9998 27.9093C31.9998 23.3905 28.6419 19.7274 24.4998 19.7274C20.3576 19.7274 16.9998 23.3905 16.9998 27.9093C16.9998 32.428 20.3576 36.0911 24.4998 36.0911Z" stroke="black" stroke-width="3"/>
<path id="Vector_2" d="M19.5 47H29.5C36.5223 47 40.0335 47 42.5558 45.1615C43.6475 44.3654 44.585 43.3427 45.3148 42.1517C47 39.4001 47 35.5696 47 27.9089C47 20.2483 46.9998 16.4184 45.3143 13.6668C44.5848 12.4757 43.6473 11.4529 42.5553 10.657C40.033 8.81848 36.522 8.81848 29.4997 8.81848H19.4996C12.4773 8.81848 8.96615 8.81848 6.44393 10.657C5.35203 11.4529 4.41452 12.4757 3.68492 13.6668C2 16.4178 2 20.2463 2 27.9038V27.9089C2 35.5696 2 39.4001 3.6853 42.1517C4.41488 43.3427 5.3524 44.3654 6.4443 45.1615C8.96653 47 12.4777 47 19.5 47Z" stroke="black" stroke-width="3"/>
<path id="Vector_3" d="M39.4998 19.7274H38.2498" stroke="black" stroke-width="3" stroke-linecap="round"/>
<path id="Vector_4" d="M30.7498 2H18.2498" stroke="black" stroke-width="3" stroke-linecap="round"/>
</g>
</svg>
