<svg width="25" height="26" viewBox="0 0 25 26" fill="none" xmlns="http://www.w3.org/2000/svg">
<g id="delete">
<path id="Vector" d="M21.3543 6.75H3.64587" stroke="#F5F5F5" stroke-width="1.5" stroke-linecap="round"/>
<path id="Vector_2" d="M19.6179 9.35416L19.1387 16.5407C18.9543 19.3062 18.8621 20.6891 17.9611 21.532C17.06 22.375 15.6742 22.375 12.9025 22.375H12.097C9.32531 22.375 7.93947 22.375 7.03842 21.532C6.13738 20.6891 6.04519 19.3062 5.86082 16.5407L5.38171 9.35416" stroke="#F5F5F5" stroke-width="1.5" stroke-linecap="round"/>
<path id="Vector_3" d="M9.89587 11.9583L10.4167 17.1667" stroke="#F5F5F5" stroke-width="1.5" stroke-linecap="round"/>
<path id="Vector_4" d="M15.1042 11.9583L14.5834 17.1667" stroke="#F5F5F5" stroke-width="1.5" stroke-linecap="round"/>
<path id="Vector_5" d="M6.77087 6.75C6.82908 6.75 6.85819 6.75 6.88457 6.74933C7.74232 6.72759 8.49902 6.1822 8.79089 5.37533C8.79987 5.35051 8.80907 5.32291 8.82748 5.26768L8.92861 4.96428C9.01495 4.70529 9.05811 4.57579 9.11536 4.46583C9.3438 4.02716 9.76644 3.72254 10.2548 3.64455C10.3773 3.625 10.5138 3.625 10.7868 3.625H14.2133C14.4863 3.625 14.6229 3.625 14.7452 3.64455C15.2337 3.72254 15.6563 4.02716 15.8847 4.46583C15.942 4.57579 15.9851 4.70529 16.0715 4.96428L16.1726 5.26768C16.191 5.32283 16.2002 5.35053 16.2092 5.37533C16.5011 6.1822 17.2577 6.72759 18.1156 6.74933C18.1419 6.75 18.171 6.75 18.2292 6.75" stroke="#F5F5F5" stroke-width="1.5"/>
</g>
</svg>
