<svg width="30" height="30" viewBox="0 0 30 30" fill="none" xmlns="http://www.w3.org/2000/svg">
<g id="menu - more">
<path id="Vector" d="M7 17C8.10457 17 9 16.1046 9 15C9 13.8954 8.10457 13 7 13C5.89543 13 5 13.8954 5 15C5 16.1046 5.89543 17 7 17Z" fill="#B0B0B0"/>
<path id="Vector_2" d="M15 17C16.1046 17 17 16.1046 17 15C17 13.8954 16.1046 13 15 13C13.8954 13 13 13.8954 13 15C13 16.1046 13.8954 17 15 17Z" fill="#B0B0B0"/>
<path id="Vector_3" d="M23 17C24.1046 17 25 16.1046 25 15C25 13.8954 24.1046 13 23 13C21.8954 13 21 13.8954 21 15C21 16.1046 21.8954 17 23 17Z" fill="#B0B0B0"/>
</g>
</svg>
