<svg width="25" height="26" viewBox="0 0 25 26" fill="none" xmlns="http://www.w3.org/2000/svg">
<g id="dublicate">
<path id="Vector" d="M6.25 11.9583C6.25 9.01206 6.25 7.53893 7.16529 6.62364C8.08058 5.70834 9.55372 5.70834 12.5 5.70834H15.625C18.5712 5.70834 20.0444 5.70834 20.9597 6.62364C21.875 7.53893 21.875 9.01206 21.875 11.9583V17.1667C21.875 20.1129 21.875 21.5861 20.9597 22.5014C20.0444 23.4167 18.5712 23.4167 15.625 23.4167H12.5C9.55372 23.4167 8.08058 23.4167 7.16529 22.5014C6.25 21.5861 6.25 20.1129 6.25 17.1667V11.9583Z" stroke="#F5F5F5" stroke-width="1.5"/>
<path id="Vector_2" d="M6.25 20.2917C4.52411 20.2917 3.125 18.8926 3.125 17.1667V10.9167C3.125 6.9883 3.125 5.02412 4.34539 3.80373C5.56578 2.58334 7.52996 2.58334 11.4583 2.58334H15.625C17.3509 2.58334 18.75 3.98246 18.75 5.70834" stroke="#F5F5F5" stroke-width="1.5"/>
<path id="Vector_3" d="M12 14.5833H14.0833M14.0833 14.5833H16.1667M14.0833 14.5833V16.6667M14.0833 14.5833V12.5" stroke="#F5F5F5" stroke-width="1.5" stroke-linecap="round"/>
</g>
</svg>
