<svg width="25" height="26" viewBox="0 0 25 26" fill="none" xmlns="http://www.w3.org/2000/svg">
<g id="gallery-edit-svgrepo-com">
<path id="Vector" d="M22.9167 13C22.9167 17.9104 22.9167 20.3657 21.3912 21.8911C19.8658 23.4166 17.4105 23.4166 12.5 23.4166C7.58957 23.4166 5.13434 23.4166 3.60886 21.8911C2.08337 20.3657 2.08337 17.9104 2.08337 13C2.08337 8.08951 2.08337 5.63428 3.60886 4.1088C5.13434 2.58331 7.58957 2.58331 12.5 2.58331" stroke="#F5F5F5" stroke-width="1.5" stroke-linecap="round"/>
<path id="Vector_2" d="M18.034 3.95507L18.6365 3.30625C19.6347 2.23125 21.2531 2.23125 22.2513 3.30625C23.2496 4.38124 23.2496 6.12415 22.2513 7.19913L21.6488 7.84795M18.034 3.95507C18.034 3.95507 18.1094 5.33378 19.2389 6.55032C20.3686 7.76684 21.6488 7.84795 21.6488 7.84795M18.034 3.95507L12.4953 9.91991C12.12 10.3239 11.9325 10.5259 11.7712 10.7487C11.581 11.0114 11.4177 11.2957 11.2847 11.5965C11.1717 11.8515 11.088 12.1225 10.9201 12.6646L10.3829 14.4M21.6488 7.84795L16.11 13.8128C15.7349 14.2168 15.5474 14.4188 15.3405 14.5926C15.0966 14.7975 14.8325 14.9732 14.5532 15.1165C14.3164 15.2381 14.0648 15.3283 13.5614 15.5091L11.95 16.0876M10.3829 14.4L10.0354 15.5229C9.95279 15.7896 10.0174 16.0837 10.202 16.2825C10.3866 16.4813 10.6597 16.5508 10.9073 16.4619L11.95 16.0876M10.3829 14.4L11.95 16.0876" stroke="#F5F5F5" stroke-width="1.5"/>
</g>
</svg>
