<svg width="60" height="60" viewBox="0 0 60 60" fill="none" xmlns="http://www.w3.org/2000/svg">
<g id="Component 1">
<path id="Vector" d="M10 28.75V14.2808C10 12.626 10 11.7986 10.1387 11.1095C10.7493 8.07557 13.2806 5.70245 16.5168 5.13003C17.2519 5 18.1344 5 19.8995 5C20.6728 5 21.0595 5 21.4312 5.03258C23.0333 5.17303 24.5531 5.7632 25.792 6.72598C26.0793 6.94928 26.3527 7.2056 26.8995 7.71828L28 8.75C29.6315 10.2796 30.4473 11.0444 31.4243 11.5539C31.961 11.8338 32.53 12.0549 33.1207 12.2127C34.1957 12.5 35.3495 12.5 37.6568 12.5H38.4043C43.669 12.5 46.3013 12.5 48.0123 13.9427C48.1698 14.0754 48.3195 14.2159 48.461 14.3634C50 15.9675 50 18.4354 50 23.3711V28.75" stroke="#B0B0B0" stroke-width="3"/>
<path id="Vector_2" d="M25 42.5H35" stroke="#B0B0B0" stroke-width="3" stroke-linecap="round"/>
<path id="Vector_3" d="M8.69185 43.7098C7.49895 36.9195 6.9025 33.5242 8.3477 31.0825C8.7165 30.4595 9.1713 29.8955 9.6977 29.4085C11.7605 27.5 15.0947 27.5 21.7632 27.5H38.2367C44.9052 27.5 48.2395 27.5 50.3022 29.4085C50.8287 29.8955 51.2835 30.4595 51.6522 31.0825C53.0975 33.5242 52.501 36.9195 51.3082 43.7098C50.4495 48.5978 50.02 51.0418 48.5322 52.6638C48.1462 53.0845 47.7145 53.4575 47.2455 53.7752C45.4375 55 43.0372 55 38.2367 55H21.7633C16.9627 55 14.5625 55 12.7546 53.7752C12.2855 53.4575 11.8536 53.0845 11.4676 52.6638C9.97995 51.0418 9.5506 48.5978 8.69185 43.7098Z" stroke="#B0B0B0" stroke-width="3"/>
</g>
</svg>
