<svg width="25" height="26" viewBox="0 0 25 26" fill="none" xmlns="http://www.w3.org/2000/svg">
<g id="file-send-svgrepo-com">
<path id="Vector" d="M14.5834 22.6354H10.4167V24.1979H14.5834V22.6354ZM2.86462 15.0833V10.9166H1.30212V15.0833H2.86462ZM22.1355 14.628V15.0833H23.698V14.628H22.1355ZM15.5117 5.30322L19.6355 9.01458L20.6807 7.85317L16.557 4.14183L15.5117 5.30322ZM23.698 14.628C23.698 12.8692 23.7137 11.7557 23.2699 10.7593L21.8426 11.395C22.1197 12.0172 22.1355 12.7312 22.1355 14.628H23.698ZM19.6355 9.01458C21.0452 10.2834 21.5656 10.7729 21.8426 11.395L23.2699 10.7593C22.8262 9.7629 21.988 9.02969 20.6807 7.85317L19.6355 9.01458ZM10.4477 3.36455C12.0955 3.36455 12.7172 3.37662 13.2714 3.58927L13.8312 2.13049C12.9439 1.78999 11.9771 1.80205 10.4477 1.80205V3.36455ZM16.557 4.14183C15.4258 3.1237 14.7185 2.47095 13.8312 2.13049L13.2714 3.58927C13.8258 3.80198 14.2933 4.2066 15.5117 5.30322L16.557 4.14183ZM10.4167 22.6354C8.43044 22.6354 7.01932 22.6337 5.94884 22.4898C4.90083 22.3489 4.29703 22.0847 3.85619 21.6438L2.75133 22.7487C3.53088 23.5282 4.51936 23.8741 5.74064 24.0384C6.93944 24.1996 8.4746 24.1979 10.4167 24.1979V22.6354ZM1.30212 15.0833C1.30212 17.0254 1.30047 18.5606 1.46164 19.7593C1.62583 20.9806 1.97179 21.9691 2.75133 22.7487L3.85619 21.6438C3.41534 21.203 3.1511 20.5991 3.01021 19.5512C2.86628 18.4807 2.86462 17.0696 2.86462 15.0833H1.30212ZM14.5834 24.1979C16.5255 24.1979 18.0607 24.1996 19.2594 24.0384C20.4807 23.8741 21.4692 23.5282 22.2488 22.7487L21.1439 21.6438C20.7031 22.0847 20.0992 22.3489 19.0513 22.4898C17.9808 22.6337 16.5696 22.6354 14.5834 22.6354V24.1979ZM22.1355 15.0833C22.1355 17.0696 22.1338 18.4807 21.9898 19.5512C21.849 20.5991 21.5847 21.203 21.1439 21.6438L22.2488 22.7487C23.0283 21.9691 23.3742 20.9806 23.5385 19.7593C23.6996 18.5606 23.698 17.0254 23.698 15.0833H22.1355ZM2.86462 10.9166C2.86462 8.93037 2.86628 7.51925 3.01021 6.44877C3.1511 5.40076 3.41534 4.79696 3.85619 4.35612L2.75133 3.25126C1.97179 4.03081 1.62583 5.01929 1.46164 6.24058C1.30047 7.43937 1.30212 8.97453 1.30212 10.9166H2.86462ZM10.4477 1.80205C8.49523 1.80205 6.95256 1.80041 5.74886 1.9615C4.52329 2.12553 3.53149 2.47112 2.75133 3.25126L3.85619 4.35612C4.29643 3.91589 4.90208 3.65127 5.95613 3.5102C7.03207 3.3662 8.4512 3.36455 10.4477 3.36455V1.80205Z" fill="#F5F5F5"/>
<path id="Vector_2" d="M13.5416 3.10419V5.70835C13.5416 8.16358 13.5416 9.3912 14.3043 10.1539C15.0671 10.9167 16.2948 10.9167 18.75 10.9167H22.9166" stroke="#F5F5F5" stroke-width="1.5"/>
<path id="Vector_3" d="M6.25004 17.1666H11.4584M11.4584 17.1666L9.50525 15.0833M11.4584 17.1666L9.50525 19.25" stroke="#F5F5F5" stroke-width="1.5" stroke-linecap="round" stroke-linejoin="round"/>
</g>
</svg>
