<svg width="45" height="45" viewBox="0 0 45 45" fill="none" xmlns="http://www.w3.org/2000/svg">
<g id="Component 1">
<path id="Vector" d="M33.75 18.75H24.375" stroke="black" stroke-width="3" stroke-linecap="round"/>
<path id="Vector_2" d="M18.75 5.625H30.9375C31.8082 5.625 32.2436 5.625 32.6092 5.67313C35.1334 6.00544 37.1196 7.99166 37.4518 10.5158C37.5 10.8813 37.5 11.3167 37.5 12.1875" stroke="black" stroke-width="3"/>
<path id="Vector_3" d="M3.75 13.0308C3.75 11.376 3.75 10.5487 3.88003 9.85948C4.45245 6.82558 6.82558 4.45245 9.85948 3.88003C10.5487 3.75 11.376 3.75 13.0308 3.75C13.7558 3.75 14.1183 3.75 14.4667 3.78259C15.9687 3.92304 17.3935 4.5132 18.5549 5.47596C18.8242 5.69927 19.0806 5.95562 19.5932 6.46828L20.625 7.5C22.1546 9.02959 22.9194 9.79438 23.8352 10.3039C24.3382 10.5838 24.8721 10.8049 25.4257 10.9627C26.4336 11.25 27.5151 11.25 29.6782 11.25H30.3789C35.3147 11.25 37.7824 11.25 39.3866 12.6927C39.5342 12.8254 39.6746 12.9659 39.8072 13.1134C41.25 14.7175 41.25 17.1854 41.25 22.1211V26.25C41.25 33.321 41.25 36.8567 39.0532 39.0532C36.8567 41.25 33.321 41.25 26.25 41.25H18.75C11.6789 41.25 8.14341 41.25 5.94669 39.0532C3.75 36.8567 3.75 33.321 3.75 26.25V13.0308Z" stroke="black" stroke-width="3"/>
</g>
</svg>
