<svg width="45" height="45" viewBox="0 0 45 45" fill="none" xmlns="http://www.w3.org/2000/svg">
<g id="Component 1">
<path id="Vector" d="M28.125 20.625C30.1961 20.625 31.875 18.9461 31.875 16.875C31.875 14.8039 30.1961 13.125 28.125 13.125C26.0539 13.125 24.375 14.8039 24.375 16.875C24.375 18.9461 26.0539 20.625 28.125 20.625Z" stroke="black" stroke-width="3"/>
<path id="Vector_2" d="M37.5002 33.0002L33.3311 29.2481C31.3821 27.4939 28.4794 27.3191 26.3338 28.827L25.7747 29.2198C24.2839 30.2677 22.2555 30.0921 20.9668 28.8034L12.9237 20.7602C11.3183 19.1548 8.74311 19.0691 7.03447 20.5641L4.27734 22.9766" stroke="black" stroke-width="3" stroke-linecap="round"/>
<path id="Vector_3" d="M22.5 41.25C32.8553 41.25 41.25 32.8553 41.25 22.5C41.25 12.1447 32.8553 3.75 22.5 3.75C12.1447 3.75 3.75 12.1447 3.75 22.5C3.75 32.8553 12.1447 41.25 22.5 41.25Z" stroke="black" stroke-width="3"/>
</g>
</svg>
