<svg width="25" height="26" viewBox="0 0 25 26" fill="none" xmlns="http://www.w3.org/2000/svg">
<g id="help">
<path id="Vector" d="M12.5 23.4167C18.2529 23.4167 22.9166 18.753 22.9166 13C22.9166 7.24707 18.2529 2.58337 12.5 2.58337C6.74701 2.58337 2.08331 7.24707 2.08331 13C2.08331 18.753 6.74701 23.4167 12.5 23.4167Z" stroke="#1F1F1F" stroke-width="1.5"/>
<path id="Vector_2" d="M12.5 17.1667C14.8012 17.1667 16.6666 15.3012 16.6666 13C16.6666 10.6989 14.8012 8.83337 12.5 8.83337C10.1988 8.83337 8.33331 10.6989 8.33331 13C8.33331 15.3012 10.1988 17.1667 12.5 17.1667Z" stroke="#1F1F1F" stroke-width="1.5"/>
<path id="Vector_3" d="M15.625 9.87504L19.7917 5.70837" stroke="#1F1F1F" stroke-width="1.5"/>
<path id="Vector_4" d="M5.20831 20.2917L9.37498 16.125" stroke="#1F1F1F" stroke-width="1.5"/>
<path id="Vector_5" d="M9.37498 9.87504L5.20831 5.70837" stroke="#1F1F1F" stroke-width="1.5"/>
<path id="Vector_6" d="M19.7917 20.2917L15.625 16.125" stroke="#1F1F1F" stroke-width="1.5"/>
</g>
</svg>
