<svg width="20" height="21" viewBox="0 0 20 21" fill="none" xmlns="http://www.w3.org/2000/svg">
<g id="multiple">
<path id="Vector" d="M5 10C5 7.64297 5 6.46447 5.73223 5.73223C6.46447 5 7.64297 5 10 5H12.5C14.857 5 16.0355 5 16.7677 5.73223C17.5 6.46447 17.5 7.64297 17.5 10V14.1667C17.5 16.5237 17.5 17.7022 16.7677 18.4344C16.0355 19.1667 14.857 19.1667 12.5 19.1667H10C7.64297 19.1667 6.46447 19.1667 5.73223 18.4344C5 17.7022 5 16.5237 5 14.1667V10Z" stroke="#F5F5F5" stroke-width="1.5"/>
<path id="Vector_2" d="M5 16.6667C3.61929 16.6667 2.5 15.5474 2.5 14.1667V9.16667C2.5 6.02397 2.5 4.45262 3.47631 3.47631C4.45262 2.5 6.02397 2.5 9.16667 2.5H12.5C13.8807 2.5 15 3.61929 15 5" stroke="#F5F5F5" stroke-width="1.5"/>
</g>
</svg>
