<svg width="45" height="45" viewBox="0 0 45 45" fill="none" xmlns="http://www.w3.org/2000/svg">
<g id="Component 1">
<path id="Vector" d="M38.0842 23.7137L39.0549 20.0914C40.1878 15.8631 40.7542 13.749 40.3277 11.9194C39.9909 10.4748 39.2332 9.16252 38.1506 8.1485C36.7794 6.86428 34.6652 6.2978 30.4371 5.16484C26.2087 4.03187 24.0945 3.46539 22.2651 3.89199C20.8204 4.22882 19.5081 4.98647 18.4941 6.06913C17.3945 7.24309 16.8211 8.96169 15.9679 12.0855C15.8246 12.6101 15.6734 13.1744 15.5105 13.7823L14.5398 17.4049C13.4069 21.6332 12.8404 23.7472 13.267 25.5769C13.6038 27.0216 14.3615 28.3339 15.4441 29.3479C16.8153 30.6321 18.9294 31.1985 23.1577 32.3316C26.9689 33.3527 29.0623 33.9137 30.7781 33.702C30.966 33.6789 31.1492 33.6465 31.3297 33.6043C32.7742 33.2676 34.0866 32.5099 35.1006 31.4272C36.3847 30.0561 36.9514 27.942 38.0842 23.7137Z" stroke="black" stroke-width="3"/>
<path id="Vector_2" d="M30.7781 33.7014C30.3872 34.8986 29.6998 35.9816 28.7756 36.8473C27.4044 38.1315 25.2902 38.6979 21.0621 39.831C16.8337 40.9639 14.7196 41.5303 12.89 41.1038C11.4454 40.767 10.1331 40.0093 9.11908 38.9267C7.83485 37.5555 7.26838 35.4414 6.13541 31.2131L5.16484 27.5908C4.03187 23.3625 3.46539 21.2484 3.89199 19.4188C4.22882 17.9743 4.98647 16.662 6.06913 15.6479C7.44028 14.3637 9.55442 13.7972 13.7827 12.6643C14.5826 12.4499 15.3069 12.2559 15.9679 12.085" stroke="black" stroke-width="3"/>
<path id="Vector_3" d="M22.0817 18.75L31.1372 21.1764" stroke="black" stroke-width="3" stroke-linecap="round"/>
<path id="Vector_4" d="M20.625 24.1828L26.0584 25.6385" stroke="black" stroke-width="3" stroke-linecap="round"/>
</g>
</svg>
