<svg width="25" height="26" viewBox="0 0 25 26" fill="none" xmlns="http://www.w3.org/2000/svg">
<g id="privacy">
<path id="Vector" d="M3.125 11.3508C3.125 8.01991 3.125 6.3545 3.51825 5.79422C3.91149 5.23394 5.47742 4.69792 8.60928 3.62586L9.20596 3.42162C10.8385 2.86279 11.6548 2.58337 12.5 2.58337C13.3452 2.58337 14.1615 2.86279 15.7941 3.42162L16.3907 3.62586C19.5226 4.69792 21.0885 5.23394 21.4818 5.79422C21.875 6.3545 21.875 8.01991 21.875 11.3508C21.875 11.8538 21.875 12.3994 21.875 12.9911C21.875 18.864 17.4594 21.7141 14.689 22.9243C13.9375 23.2525 13.5618 23.4167 12.5 23.4167C11.4382 23.4167 11.0625 23.2525 10.311 22.9243C7.54058 21.7141 3.125 18.864 3.125 12.9911C3.125 12.3994 3.125 11.8538 3.125 11.3508Z" stroke="#1F1F1F" stroke-width="1.5"/>
<path id="Vector_2" d="M12.5 11.5417C13.6506 11.5417 14.5834 10.6089 14.5834 9.45833C14.5834 8.30774 13.6506 7.375 12.5 7.375C11.3494 7.375 10.4167 8.30774 10.4167 9.45833C10.4167 10.6089 11.3494 11.5417 12.5 11.5417Z" stroke="#1F1F1F" stroke-width="1.5"/>
<path id="Vector_3" d="M16.6666 16.125C16.6666 17.2756 16.6666 18.2083 12.5 18.2083C8.33331 18.2083 8.33331 17.2756 8.33331 16.125C8.33331 14.9743 10.1988 14.0416 12.5 14.0416C14.8011 14.0416 16.6666 14.9743 16.6666 16.125Z" stroke="#1F1F1F" stroke-width="1.5"/>
</g>
</svg>
