<svg width="25" height="26" viewBox="0 0 25 26" fill="none" xmlns="http://www.w3.org/2000/svg">
<g id="sendCopy">
<path id="Vector" d="M6.25 11.9583C6.25 9.01203 6.25 7.5389 7.16529 6.6236C8.08058 5.70831 9.55372 5.70831 12.5 5.70831H15.625C18.5712 5.70831 20.0444 5.70831 20.9597 6.6236C21.875 7.5389 21.875 9.01203 21.875 11.9583V17.1666C21.875 20.1129 21.875 21.586 20.9597 22.5013C20.0444 23.4166 18.5712 23.4166 15.625 23.4166H12.5C9.55372 23.4166 8.08058 23.4166 7.16529 22.5013C6.25 21.586 6.25 20.1129 6.25 17.1666V11.9583Z" stroke="#F5F5F5" stroke-width="1.5"/>
<path id="Vector_2" d="M6.25 20.2916C4.52411 20.2916 3.125 18.8926 3.125 17.1666V10.9166C3.125 6.98827 3.125 5.02409 4.34539 3.8037C5.56578 2.58331 7.52996 2.58331 11.4583 2.58331H15.625C17.3509 2.58331 18.75 3.98243 18.75 5.70831" stroke="#F5F5F5" stroke-width="1.5"/>
<path id="Vector_3" d="M13.0002 17.5833H18.2085M18.2085 17.5833L16.2554 15.5M18.2085 17.5833L16.2554 19.6667" stroke="#F5F5F5" stroke-width="1.5" stroke-linecap="round" stroke-linejoin="round"/>
</g>
</svg>
