<svg width="25" height="26" viewBox="0 0 25 26" fill="none" xmlns="http://www.w3.org/2000/svg">
<g id="share">
<path id="Vector" d="M22.9166 15.0812C22.8865 18.6374 22.689 20.598 21.3962 21.8909C19.8703 23.4167 17.4145 23.4167 12.5027 23.4167C7.59095 23.4167 5.13508 23.4167 3.6092 21.8909C2.08331 20.3649 2.08331 17.9091 2.08331 12.9973C2.08331 8.08558 2.08331 5.62971 3.6092 4.10382C4.90205 2.81096 6.86255 2.61353 10.4188 2.58337" stroke="#1F1F1F" stroke-width="1.5" stroke-linecap="round"/>
<path id="Vector_2" d="M22.9167 7.79171H14.5833C12.69 7.79171 11.5486 8.7209 11.1254 9.14618C10.9944 9.27789 10.9289 9.34375 10.9279 9.34465C10.9271 9.34554 10.8611 9.41107 10.7295 9.54215C10.3042 9.96536 9.375 11.1067 9.375 13V16.125M22.9167 7.79171L17.7083 2.58337M22.9167 7.79171L17.7083 13" stroke="#1F1F1F" stroke-width="1.5" stroke-linecap="round" stroke-linejoin="round"/>
</g>
</svg>
