<svg width="15" height="16" viewBox="0 0 15 16" fill="none" xmlns="http://www.w3.org/2000/svg">
<g id="multiple">
<path id="Vector" d="M3.75 12.375C2.71447 12.375 1.875 11.5356 1.875 10.5V6.75C1.875 4.39298 1.875 3.21447 2.60723 2.48223C3.33947 1.75 4.51798 1.75 6.875 1.75H9.375C10.4106 1.75 11.25 2.58947 11.25 3.625" stroke="#B0B0B0"/>
<path id="Vector_2" d="M3.75 7.375C3.75 5.60723 3.75 4.72335 4.29918 4.17418C4.84835 3.625 5.73223 3.625 7.5 3.625H9.375C11.1427 3.625 12.0266 3.625 12.5758 4.17418C13.125 4.72335 13.125 5.60723 13.125 7.375V10.5C13.125 12.2677 13.125 13.1516 12.5758 13.7008C12.0266 14.25 11.1427 14.25 9.375 14.25H7.5C5.73223 14.25 4.84835 14.25 4.29918 13.7008C3.75 13.1516 3.75 12.2677 3.75 10.5V7.375Z" stroke="#B0B0B0"/>
</g>
</svg>
