<svg width="40" height="40" viewBox="0 0 40 40" fill="#B0B0B0" xmlns="http://www.w3.org/2000/svg">
<g id="Tab Convert">
<path id="&#240;&#159;&#142;&#168;-Color" d="M4.57819 25C5.21101 25 5.734 25.4702 5.81677 26.0804L5.82819 26.25V32.0872L5.83894 32.3002C5.93852 33.2807 6.71801 34.0602 7.69851 34.1598L7.91152 34.1705H13.7449L13.9145 34.1819C14.5246 34.2647 14.9949 34.7877 14.9949 35.4205C14.9949 36.0534 14.5246 36.5764 13.9145 36.6591L13.7449 36.6705H7.91152L7.63232 36.6622C5.32708 36.5237 3.48121 34.6812 3.33723 32.3775L3.32819 32.0872V26.25L3.3396 26.0804C3.42237 25.4702 3.94536 25 4.57819 25ZM35.4115 25C36.0443 25 36.5673 25.4702 36.6501 26.0804L36.6615 26.25V32.0872C36.6615 34.5248 34.7587 36.5179 32.3574 36.6622L32.0782 36.6705H26.2449C25.5545 36.6705 24.9949 36.1109 24.9949 35.4205C24.9949 34.7877 25.4651 34.2647 26.0752 34.1819L26.2449 34.1705H32.0782C33.1569 34.1705 34.0441 33.3507 34.1508 32.3002L34.1615 32.0872V26.25C34.1615 25.5596 34.7212 25 35.4115 25ZM20.4249 25.8333C21.1153 25.8333 21.6749 26.393 21.6749 27.0833C21.6749 27.7161 21.2046 28.2391 20.5945 28.3219L20.4249 28.3333H12.9166C12.2263 28.3333 11.6666 27.7737 11.6666 27.0833C11.6666 26.4505 12.1369 25.9275 12.747 25.8447L12.9166 25.8333H20.4249ZM27.0833 18.75C27.7736 18.75 28.3333 19.3096 28.3333 20C28.3333 20.6328 27.863 21.1558 27.2529 21.2386L27.0833 21.25H12.9166C12.2263 21.25 11.6666 20.6903 11.6666 20C11.6666 19.3672 12.1369 18.8442 12.747 18.7614L12.9166 18.75H27.0833ZM13.7449 3.33331C14.4352 3.33331 14.9949 3.89296 14.9949 4.58331C14.9949 5.21614 14.5246 5.73913 13.9145 5.8219L13.7449 5.83331H7.91152C6.83284 5.83331 5.94563 6.6531 5.83894 7.70364L5.82819 7.91665V13.7539C5.82819 14.4442 5.26854 15.0039 4.57819 15.0039C3.94536 15.0039 3.42237 14.5336 3.3396 13.9235L3.32819 13.7539V7.91665C3.32819 5.47909 5.23103 3.48597 7.63232 3.34168L7.91152 3.33331H13.7449ZM32.0782 3.33331L32.3574 3.34168C34.6626 3.4802 36.5085 5.3226 36.6525 7.62636L36.6615 7.91665V13.7539L36.6501 13.9235C36.5673 14.5336 36.0443 15.0039 35.4115 15.0039C34.7787 15.0039 34.2557 14.5336 34.1729 13.9235L34.1615 13.7539V7.91665L34.1508 7.70364C34.0512 6.72314 33.2717 5.94364 32.2912 5.84407L32.0782 5.83331H26.2449L26.0752 5.8219C25.4651 5.73913 24.9949 5.21614 24.9949 4.58331C24.9949 3.95049 25.4651 3.42749 26.0752 3.34472L26.2449 3.33331H32.0782ZM27.0833 11.6666C27.7736 11.6666 28.3333 12.2263 28.3333 12.9166C28.3333 13.5495 27.863 14.0725 27.2529 14.1552L27.0833 14.1666H12.9166C12.2263 14.1666 11.6666 13.607 11.6666 12.9166C11.6666 12.2838 12.1369 11.7608 12.747 11.6781L12.9166 11.6666H27.0833Z"/>
</g>
</svg>
