<svg width="40" height="40" viewBox="0 0 40 40" fill="#B0B0B0" stroke="#B0B0B0" stroke-width="none" xmlns="http://www.w3.org/2000/svg">
<g id="Tab History">
<path id="Vector" d="M4.58331 26.9062V8.32989H2.08331V26.9062H4.58331ZM37.9166 26.9062V8.22222H35.4166V26.9062H37.9166ZM33.4265 3.78056C31.5291 3.84666 29.0493 4.04401 27.1415 4.61514L27.8585 7.01012C29.4405 6.53654 31.6486 6.34401 33.5135 6.27904L33.4265 3.78056ZM27.1415 4.61514C25.4831 5.11162 23.6176 6.08136 22.1636 6.92294L23.4158 9.08669C24.8333 8.26637 26.4915 7.41937 27.8585 7.01012L27.1415 4.61514ZM6.56063 6.37269C8.17061 6.47164 9.99403 6.66406 11.3477 7.02126L11.9856 4.60401C10.3842 4.18144 8.3586 3.97847 6.714 3.87739L6.56063 6.37269ZM11.3477 7.02126C12.9512 7.44441 14.9247 8.37016 16.5528 9.23102L17.7213 7.02097C16.0622 6.14366 13.8794 5.10376 11.9856 4.60401L11.3477 7.02126ZM23.3006 34.552C24.9523 33.6715 26.998 32.701 28.6523 32.2645L28.0143 29.8472C26.0638 30.3619 23.8045 31.4504 22.1246 32.3459L23.3006 34.552ZM28.6523 32.2645C29.9905 31.9114 31.7886 31.719 33.3866 31.6192L33.2305 29.124C31.597 29.2262 29.5985 29.4292 28.0143 29.8472L28.6523 32.2645ZM17.8753 32.3459C16.1954 31.4504 13.9361 30.3619 11.9856 29.8472L11.3477 32.2645C13.002 32.701 15.0476 33.6715 16.6993 34.552L17.8753 32.3459ZM11.9856 29.8472C10.4015 29.4292 8.40291 29.2262 6.76945 29.124L6.61338 31.6192C8.21131 31.719 10.0094 31.9114 11.3477 32.2645L11.9856 29.8472ZM35.4166 26.9062C35.4166 28.0492 34.4695 29.0465 33.2305 29.124L33.3866 31.6192C35.8436 31.4655 37.9166 29.4665 37.9166 26.9062H35.4166ZM37.9166 8.22222C37.9166 5.78337 35.9745 3.69181 33.4265 3.78056L33.5135 6.27904C34.5381 6.24336 35.4166 7.08624 35.4166 8.22222H37.9166ZM2.08331 26.9062C2.08331 29.4665 4.15628 31.4655 6.61338 31.6192L6.76945 29.124C5.5305 29.0465 4.58331 28.0492 4.58331 26.9062H2.08331ZM22.1246 32.3459C20.8041 33.0499 19.1958 33.0499 17.8753 32.3459L16.6993 34.552C18.7548 35.6477 21.2451 35.6477 23.3006 34.552L22.1246 32.3459ZM22.1636 6.92294C20.8001 7.71204 19.1028 7.75141 17.7213 7.02097L16.5528 9.23102C18.7065 10.3698 21.3183 10.3006 23.4158 9.08669L22.1636 6.92294ZM4.58331 8.32989C4.58331 7.16792 5.50403 6.30774 6.56063 6.37269L6.714 3.87739C4.11693 3.71777 2.08331 5.83131 2.08331 8.32989H4.58331Z"/>
<g id="Vector_2">
<path d="M20 9.75665V34.9998V9.75665Z"/>
<path d="M20 9.75665V34.9998" stroke-width="2.5"/>
</g>
<g id="Vector_3">
<path d="M8.33331 15L15 16.6667L8.33331 15Z"/>
<path d="M8.33331 15L15 16.6667" stroke-width="2.5" stroke-linecap="round"/>
</g>
<g id="Vector_4">
<path d="M31.6667 15L25 16.6667L31.6667 15Z"/>
<path d="M31.6667 15L25 16.6667" stroke-width="2.5" stroke-linecap="round"/>
</g>
<g id="Vector_5">
<path d="M8.33331 21.6667L15 23.3334L8.33331 21.6667Z"/>
<path d="M8.33331 21.6667L15 23.3334" stroke-width="2.5" stroke-linecap="round"/>
</g>
<g id="Vector_6">
<path d="M31.6667 21.6667L25 23.3334L31.6667 21.6667Z"/>
<path d="M31.6667 21.6667L25 23.3334" stroke-width="2.5" stroke-linecap="round"/>
</g>
</g>
</svg>
