<svg width="40" height="40" viewBox="0 0 40 40" stroke="#B0B0B0" fill="none" xmlns="http://www.w3.org/2000/svg">
<g id="Tab Settings">
<path id="Vector" d="M19.9999 24.3668C22.5773 24.3668 24.6667 22.2625 24.6667 19.6668C24.6667 17.0711 22.5773 14.9668 19.9999 14.9668C17.4224 14.9668 15.333 17.0711 15.333 19.6668C15.333 22.2625 17.4224 24.3668 19.9999 24.3668Z" stroke-width="2.5"/>
<path id="Vector_2" d="M22.7462 4.23851C22.1744 4 21.4496 4 19.9999 4C18.5503 4 17.8255 4 17.2536 4.23851C16.4914 4.55653 15.8857 5.16651 15.5699 5.93425C15.4258 6.28473 15.3693 6.69232 15.3473 7.28685C15.3148 8.16057 14.8699 8.96929 14.1181 9.40646C13.3662 9.8436 12.4483 9.82728 11.6808 9.41872C11.1585 9.1407 10.7798 8.9861 10.4064 8.9366C9.58826 8.82812 8.76089 9.05139 8.10626 9.55728C7.61528 9.9367 7.25287 10.5689 6.52804 11.8332C5.80322 13.0976 5.44081 13.7298 5.36002 14.3477C5.25233 15.1716 5.47402 16.0048 5.97634 16.6641C6.20561 16.9651 6.52784 17.218 7.02795 17.5344C7.76315 17.9997 8.2362 18.7923 8.23615 19.6667C8.23611 20.541 7.76308 21.3334 7.02794 21.7986C6.52776 22.1152 6.20549 22.3682 5.97619 22.6692C5.47386 23.3284 5.25217 24.1616 5.35988 24.9855C5.44065 25.6034 5.80306 26.2357 6.52789 27.5C7.25273 28.7643 7.61514 29.3966 8.1061 29.7759C8.76074 30.2818 9.58811 30.505 10.4062 30.3966C10.7796 30.3471 11.1583 30.1925 11.6806 29.9145C12.4482 29.506 13.3661 29.4897 14.118 29.9268C14.8699 30.364 15.3148 31.1727 15.3473 32.0466C15.3693 32.641 15.4258 33.0487 15.5699 33.3991C15.8857 34.1668 16.4914 34.7769 17.2536 35.0949C17.8255 35.3333 18.5503 35.3333 19.9999 35.3333C21.4496 35.3333 22.1744 35.3333 22.7462 35.0949C23.5085 34.7769 24.1142 34.1668 24.4299 33.3991C24.5741 33.0487 24.6305 32.641 24.6526 32.0465C24.685 31.1727 25.1299 30.364 25.8817 29.9268C26.6335 29.4895 27.5515 29.506 28.3192 29.9145C28.8414 30.1925 29.2201 30.3469 29.5934 30.3965C30.4115 30.505 31.2389 30.2818 31.8935 29.7759C32.3845 29.3964 32.747 28.7643 33.4717 27.4998C34.1966 26.2355 34.5591 25.6034 34.6398 24.9855C34.7475 24.1616 34.5258 23.3283 34.0235 22.669C33.7942 22.3681 33.4719 22.1151 32.9717 21.7986C32.2367 21.3334 31.7636 20.5409 31.7636 19.6665C31.7636 18.7922 32.2367 17.9999 32.9717 17.5347C33.472 17.2181 33.7943 16.9653 34.0236 16.6641C34.526 16.0049 34.7476 15.1717 34.64 14.3478C34.5592 13.7299 34.1968 13.0977 33.4719 11.8333C32.7471 10.569 32.3846 9.9368 31.8937 9.55739C31.2391 9.0515 30.4117 8.82823 29.5936 8.93671C29.2202 8.98621 28.8416 9.1408 28.3192 9.41879C27.5517 9.82736 26.6337 9.8437 25.8819 9.4065C25.1299 8.96933 24.685 8.16053 24.6526 7.28677C24.6305 6.69229 24.5741 6.28472 24.4299 5.93425C24.1142 5.16651 23.5085 4.55653 22.7462 4.23851Z" stroke-width="2.5"/>
</g>
</svg>
