<svg width="25" height="26" viewBox="0 0 25 26" fill="none" xmlns="http://www.w3.org/2000/svg">
<g id="terms">
<path id="Vector" d="M16.6667 4.6687C18.9323 4.68132 20.1593 4.78178 20.9597 5.58218C21.875 6.49747 21.875 7.97062 21.875 10.9169V17.1669C21.875 20.1131 21.875 21.5864 20.9597 22.5016C20.0444 23.4169 18.5712 23.4169 15.625 23.4169H9.375C6.42872 23.4169 4.95558 23.4169 4.04029 22.5016C3.125 21.5864 3.125 20.1131 3.125 17.1669V10.9169C3.125 7.97062 3.125 6.49747 4.04029 5.58218C4.84069 4.78178 6.06768 4.68132 8.33333 4.6687" stroke="#1F1F1F" stroke-width="1.5"/>
<path id="Vector_2" d="M10.9375 15.0834H17.7083" stroke="#1F1F1F" stroke-width="1.5" stroke-linecap="round"/>
<path id="Vector_3" d="M7.29169 15.0834H7.81252" stroke="#1F1F1F" stroke-width="1.5" stroke-linecap="round"/>
<path id="Vector_4" d="M7.29169 11.4375H7.81252" stroke="#1F1F1F" stroke-width="1.5" stroke-linecap="round"/>
<path id="Vector_5" d="M7.29169 18.7291H7.81252" stroke="#1F1F1F" stroke-width="1.5" stroke-linecap="round"/>
<path id="Vector_6" d="M10.9375 11.4375H17.7083" stroke="#1F1F1F" stroke-width="1.5" stroke-linecap="round"/>
<path id="Vector_7" d="M10.9375 18.7291H17.7083" stroke="#1F1F1F" stroke-width="1.5" stroke-linecap="round"/>
<path id="Vector_8" d="M8.33331 4.14587C8.33331 3.28293 9.03287 2.58337 9.89581 2.58337H15.1041C15.9671 2.58337 16.6666 3.28293 16.6666 4.14587V5.18754C16.6666 6.05049 15.9671 6.75004 15.1041 6.75004H9.89581C9.03287 6.75004 8.33331 6.05049 8.33331 5.18754V4.14587Z" stroke="#1F1F1F" stroke-width="1.5"/>
</g>
</svg>
